<svg id="_x31_9-Web_Page" xmlns="http://www.w3.org/2000/svg" width="99.792" height="85.736" viewBox="0 0 99.792 85.736">
  <g id="Group_1" data-name="Group 1" transform="translate(0 0)">
    <path id="Path_6" data-name="Path 6" d="M133.773,73H52.019A9.029,9.029,0,0,0,43,82.019v67.7a9.029,9.029,0,0,0,9.019,9.019h81.754a9.029,9.029,0,0,0,9.019-9.019v-67.7A9.029,9.029,0,0,0,133.773,73Zm2.928,9.019v5.035h-22V79.091h19.068A2.931,2.931,0,0,1,136.7,82.019ZM52.019,79.091h56.6v7.963H49.091V82.019A2.931,2.931,0,0,1,52.019,79.091Zm81.754,73.555H52.019a2.931,2.931,0,0,1-2.928-2.928V93.144H136.7v56.573A2.931,2.931,0,0,1,133.773,152.646Z" transform="translate(-43 -73)" fill="rgba(255,255,255,0.7)"/>
    <path id="Path_7" data-name="Path 7" d="M147.163,256.967a2.139,2.139,0,0,0-2.857,1.228l-1.942,4.427-.848-2a2.22,2.22,0,0,0-4.077,0l-.832,1.985-1.941-4.424a2.121,2.121,0,0,0-2.827-1.218,2.174,2.174,0,0,0-1.175,2.881c4.1,9.7,4.021,9.756,4.53,10.075a2.115,2.115,0,0,0,2.086.452c1.2-.295,1.723-2.127,2.208-3.31.562,1.333,1.268,4.059,3.473,3.328a2.229,2.229,0,0,0,1.425-1.256l3.95-9.288A2.182,2.182,0,0,0,147.163,256.967Z" transform="translate(-109.988 -213.736)" fill="rgba(255,255,255,0.7)"/>
    <path id="Path_8" data-name="Path 8" d="M234.183,256.967a2.138,2.138,0,0,0-2.856,1.228l-1.942,4.427-.849-2a2.219,2.219,0,0,0-4.067-.026l-.01.022-.832,1.985-1.941-4.424a2.121,2.121,0,0,0-2.827-1.218,2.174,2.174,0,0,0-1.175,2.881c4.177,9.882,4.021,9.756,4.53,10.075a1.853,1.853,0,0,0,1.081.526c2.06.373,2.544-1.753,3.214-3.384.566,1.342,1.267,4.058,3.473,3.328a2.275,2.275,0,0,0,1.425-1.256l3.95-9.288A2.182,2.182,0,0,0,234.183,256.967Z" transform="translate(-176.623 -213.736)" fill="rgba(255,255,255,0.7)"/>
    <path id="Path_9" data-name="Path 9" d="M321.2,256.967a2.139,2.139,0,0,0-2.857,1.228l-1.942,4.427-.849-2a2.219,2.219,0,0,0-4.067-.026l-.01.022-.832,1.985-1.941-4.424a2.121,2.121,0,0,0-2.827-1.218,2.174,2.174,0,0,0-1.175,2.881c4.1,9.7,4.021,9.755,4.53,10.075a2.1,2.1,0,0,0,2.89-.04c.467-.369.529-.684,1.405-2.819.569,1.347,1.266,4.059,3.473,3.328a2.243,2.243,0,0,0,1.425-1.256l3.95-9.288A2.182,2.182,0,0,0,321.2,256.967Z" transform="translate(-243.256 -213.736)" fill="rgba(255,255,255,0.7)"/>
  </g>
</svg>
